# xmcd
#
# Track frame offsets: 
#        150
#        19451
#        35799
#        53021
#        65559
#        81956
#        103600
#        118125
#        137837
#        154141
#        169202
#        182580
#        197578
#        220248
#        247301
#        284816
#        304216
#        319448
#
# Disc length: 4430 seconds
#
# Revision: 0
# Processed by: cddbd v1.5.2PL0 Copyright (c) Steve Scherf et al.
# Submitted via: ExactAudioCopyFreeDBPlugin 1.0
#
DISCID=20114c12
DTITLE=Tommie Harris and Seventh Son - Nothin' But The Blues
DYEAR=1999
DGENRE=Blues
TTITLE0=Bad Love
TTITLE1=Back At The Chicken Shack
TTITLE2=Evil
TTITLE3=My Last Meal
TTITLE4=Soul Fixin' Man
TTITLE5=The Thrill Is Gone
TTITLE6=That's What You're Doing To Me
TTITLE7=Forty-Four
TTITLE8=Ain't Nobody's Business
TTITLE9=Just A Little Bit
TTITLE10=Goose Grease
TTITLE11=Woman Across The River
TTITLE12=Luther's Blues
TTITLE13=Why I Sing The Blues
TTITLE14=Sweet Sixteen
TTITLE15=Who's Been Talking
TTITLE16=Serpents Touch
TTITLE17=Bonus
EXTD=
EXTT0=
EXTT1=
EXTT2=
EXTT3=
EXTT4=
EXTT5=
EXTT6=
EXTT7=
EXTT8=
EXTT9=
EXTT10=
EXTT11=
EXTT12=
EXTT13=
EXTT14=
EXTT15=
EXTT16=
EXTT17=
PLAYORDER=
